<svg width="313" height="228" viewBox="0 0 313 228" fill="none" xmlns="http://www.w3.org/2000/svg">
<g clip-path="url(#clip0)">
<path d="M283.656 -0.000244141H29.3439C13.1627 -0.000244141 0 12.784 0 28.5V199.5C0 215.216 13.1627 228 29.3439 228H283.656C299.837 228 313 215.216 313 199.5V28.5C313 12.784 299.837 -0.000244141 283.656 -0.000244141ZM283.656 18.9997C284.985 18.9997 286.249 19.2675 287.405 19.7352L156.5 129.929L25.5943 19.7352C26.7501 19.2681 28.0144 18.9997 29.3433 18.9997H283.656ZM283.656 208.999H29.3439C23.9471 208.999 19.5624 204.742 19.5624 199.499V39.8088L150.09 149.68C151.934 151.229 154.217 152 156.5 152C158.783 152 161.066 151.23 162.91 149.68L293.438 39.8088V199.5C293.437 204.742 289.053 208.999 283.656 208.999Z" fill="white"/>
</g>
<defs>
<clipPath id="clip0">
<rect width="313" height="228" fill="white"/>
</clipPath>
</defs>
</svg>
