<svg width="512" height="512" viewBox="0 0 512 512" fill="none" xmlns="http://www.w3.org/2000/svg">
<path d="M367.973 512C351.446 512 335.058 509.078 319.034 503.256C248.439 477.611 182.911 435.843 129.534 382.466C76.1559 329.089 34.3876 263.561 8.74363 192.966C0.50297 170.279 -1.92893 146.86 1.51793 123.357C4.7468 101.342 13.2744 79.9697 26.1799 61.5505C39.1424 43.0502 56.4237 27.6629 76.1549 17.0523C97.196 5.73776 120.162 0 144.417 0C151.961 0 158.48 5.27078 160.061 12.6465L185.174 129.841C186.311 135.147 184.68 140.669 180.844 144.507L137.932 187.417C178.413 267.9 244.098 333.585 324.581 374.066L367.491 331.154C371.328 327.318 376.851 325.689 382.157 326.824L499.352 351.937C506.728 353.517 511.998 360.037 511.998 367.581C511.998 391.836 506.26 414.803 494.945 435.844C484.334 455.575 468.947 472.857 450.447 485.819C432.028 498.725 410.656 507.252 388.64 510.481C381.741 511.494 374.844 511.999 367.973 512ZM131.634 32.6987C99.6399 36.2305 71.2431 52.9998 52.3858 79.9137C31.1807 110.177 26.2359 147.401 38.8194 182.042C88.1214 317.762 194.238 423.879 329.958 473.181C364.598 485.764 401.823 480.82 432.086 459.614C459 440.757 475.77 412.36 479.301 380.366L383.964 359.937L339.15 404.751C334.381 409.52 327.136 410.787 321.034 407.919C225.848 363.201 148.799 286.152 104.081 190.966C101.214 184.863 102.48 177.618 107.249 172.85L152.063 128.036L131.634 32.6987Z" fill="#FFB53D"/>
<path d="M496 271.989C487.164 271.989 480 264.825 480 255.989C480 132.481 379.518 31.9987 256.009 31.9987C247.174 31.9987 240.01 24.835 240.01 15.9993C240.01 7.16371 247.174 0 256.009 0C324.388 0 388.672 26.6269 437.022 74.9769C485.372 123.327 511.999 187.611 511.999 255.989C511.999 264.825 504.836 271.989 496 271.989Z" fill="#FFB53D"/>
<path d="M432.002 271.989C423.167 271.989 416.003 264.825 416.003 255.99C416.003 167.769 344.23 95.9961 256.009 95.9961C247.174 95.9961 240.01 88.8324 240.01 79.9967C240.01 71.1611 247.174 63.9974 256.009 63.9974C361.874 63.9974 448.002 150.125 448.002 255.99C448.002 264.825 440.839 271.989 432.002 271.989Z" fill="#FFB53D"/>
<path d="M368.005 271.989C359.169 271.989 352.006 264.825 352.006 255.99C352.006 203.057 308.942 159.993 256.009 159.993C247.174 159.993 240.01 152.83 240.01 143.994C240.01 135.158 247.174 127.995 256.009 127.995C326.587 127.995 384.004 185.412 384.004 255.99C384.004 264.825 376.842 271.989 368.005 271.989Z" fill="#FFB53D"/>
</svg>
